# xmcd
#
# Track frame offsets:
#	150
#	10645
#	21784
#	34573
#	46941
#	55993
#	65482
#	79158
#	87469
#	103246
#	116023
#	124793
#	137157
#	148821
#	162957
#	173952
#	185447
#	194405
#	206238
#	219664
#
# Disc length: 3100 seconds
#
# Revision: 1
# Processed by: cddbd v1.5.2PL0 Copyright (c) Steve Scherf et al.
# Submitted via: audiograbber 1.83.01
#
DISCID=280c1a14
DTITLE=Big Tom - The Very Best Of Irish Country
DYEAR=1999
DGENRE=
TTITLE0=My World's Come Down
TTITLE1=Before I Met You
TTITLE2=BJ The DJ
TTITLE3=Gentle Mother
TTITLE4=Back In My Baby's Arms
TTITLE5=The Wheels Fell Off The Wagon
TTITLE6=The Kentucky Waltz
TTITLE7=I Guess Things Happen That Way
TTITLE8=The Old Rustic Bridge
TTITLE9=Be Careful Of Stones That You Throw
TTITLE10=Pins And Needles
TTITLE11=Wedding Bells
TTITLE12=Give My Love To Rose
TTITLE13=Sing Me Back Home
TTITLE14=The Sunset Years Of Life
TTITLE15=Don't Be Angry With Me
TTITLE16=She's Gone
TTITLE17=From Summer To Winter
TTITLE18=Flowers For Mama
TTITLE19=Blue Eyes Crying In The Rain
EXTD=
EXTT0=
EXTT1=
EXTT2=
EXTT3=
EXTT4=
EXTT5=
EXTT6=
EXTT7=
EXTT8=
EXTT9=
EXTT10=
EXTT11=
EXTT12=
EXTT13=
EXTT14=
EXTT15=
EXTT16=
EXTT17=
EXTT18=
EXTT19=
PLAYORDER=
